<?xml version="1.0" encoding="UTF-8" standalone="no"?>
<!-- Created with Inkscape (http://www.inkscape.org/) -->

<svg
   version="1.1"
   id="svg2"
   xml:space="preserve"
   width="3814.24"
   height="2666.6667"
   viewBox="0 0 3814.24 2666.6667"
   sodipodi:docname="Tiny man sitting on chair with laptop on checklist background.eps"
   xmlns:inkscape="http://www.inkscape.org/namespaces/inkscape"
   xmlns:sodipodi="http://sodipodi.sourceforge.net/DTD/sodipodi-0.dtd"
   xmlns="http://www.w3.org/2000/svg"
   xmlns:svg="http://www.w3.org/2000/svg"><defs
     id="defs6" /><sodipodi:namedview
     id="namedview4"
     pagecolor="#ffffff"
     bordercolor="#666666"
     borderopacity="1.0"
     inkscape:pageshadow="2"
     inkscape:pageopacity="0.0"
     inkscape:pagecheckerboard="0" /><g
     id="g8"
     inkscape:groupmode="layer"
     inkscape:label="ink_ext_XXXXXX"
     transform="matrix(1.3333333,0,0,-1.3333333,0,2666.6667)"><g
       id="g10"
       transform="scale(0.1)"><path
         d="M 28606.8,0 H 0 V 20000 H 28606.8 V 0"
         style="fill:#ffffff;fill-opacity:1;fill-rule:nonzero;stroke:none"
         id="path12" /><path
         d="m 23476.9,1720 c 0,0 4354.3,4581 2354.3,10271.9 -1093,3110.1 -3040,4315 -6415.4,3983 -3649.6,-359 -5969.2,3375.4 -12538.77,1762.8 C 5221.22,17367.8 3657.14,16402 2799.46,14775.1 2036.02,13327 1971.25,10462.9 3231.17,8472.5 4491.09,6482.1 6911.17,4379 4397.21,1720 H 23476.9"
         style="fill:#dcf4ff;fill-opacity:1;fill-rule:nonzero;stroke:none"
         id="path14" /><path
         d="m 9506.7,14988.3 v -13232 h 9854.2 v 11054.6 l -2121.6,2177.4 H 9506.7"
         style="fill:#ffffff;fill-opacity:1;fill-rule:nonzero;stroke:none"
         id="path16" /><path
         d="m 19360.9,12806.8 -2109.2,2181.5 v -2181.5 z"
         style="fill:#aac9f8;fill-opacity:1;fill-rule:nonzero;stroke:none"
         id="path18" /><path
         d="m 18349.4,10976.4 h -6407.6 c -49.9,0 -90.3,50 -90.3,111.7 v 0 c 0,61.6 40.4,111.6 90.3,111.6 h 6407.6 c 49.9,0 90.3,-50 90.3,-111.6 v 0 c 0,-61.7 -40.4,-111.7 -90.3,-111.7"
         style="fill:#aac9f8;fill-opacity:1;fill-rule:nonzero;stroke:none"
         id="path20" /><path
         d="m 18349.4,9999.3 h -6407.6 c -49.9,0 -90.3,50 -90.3,111.7 v 0 c 0,61.7 40.4,111.7 90.3,111.7 h 6407.6 c 49.9,0 90.3,-50 90.3,-111.7 v 0 c 0,-61.7 -40.4,-111.7 -90.3,-111.7"
         style="fill:#aac9f8;fill-opacity:1;fill-rule:nonzero;stroke:none"
         id="path22" /><path
         d="m 18349.4,9022.3 h -6407.6 c -49.9,0 -90.3,50 -90.3,111.7 v 0 c 0,61.6 40.4,111.6 90.3,111.6 h 6407.6 c 49.9,0 90.3,-50 90.3,-111.6 v 0 c 0,-61.7 -40.4,-111.7 -90.3,-111.7"
         style="fill:#aac9f8;fill-opacity:1;fill-rule:nonzero;stroke:none"
         id="path24" /><path
         d="m 18349.4,7068.2 h -6407.6 c -49.9,0 -90.3,50 -90.3,111.7 v 0 c 0,61.6 40.4,111.6 90.3,111.6 h 6407.6 c 49.9,0 90.3,-50 90.3,-111.6 v 0 c 0,-61.7 -40.4,-111.7 -90.3,-111.7"
         style="fill:#aac9f8;fill-opacity:1;fill-rule:nonzero;stroke:none"
         id="path26" /><path
         d="m 18349.4,6091.2 h -6407.6 c -49.9,0 -90.3,49.9 -90.3,111.6 v 0 c 0,61.7 40.4,111.7 90.3,111.7 h 6407.6 c 49.9,0 90.3,-50 90.3,-111.7 v 0 c 0,-61.7 -40.4,-111.6 -90.3,-111.6"
         style="fill:#aac9f8;fill-opacity:1;fill-rule:nonzero;stroke:none"
         id="path28" /><path
         d="m 18349.4,8045.2 h -6407.6 c -49.9,0 -90.3,50 -90.3,111.7 v 0 c 0,61.7 40.4,111.7 90.3,111.7 h 6407.6 c 49.9,0 90.3,-50 90.3,-111.7 v 0 c 0,-61.7 -40.4,-111.7 -90.3,-111.7"
         style="fill:#aac9f8;fill-opacity:1;fill-rule:nonzero;stroke:none"
         id="path30" /><path
         d="m 18349.4,5132.7 h -6407.6 c -49.9,0 -90.3,50 -90.3,111.6 v 0 c 0,61.7 40.4,111.7 90.3,111.7 h 6407.6 c 49.9,0 90.3,-50 90.3,-111.7 v 0 c 0,-61.6 -40.4,-111.6 -90.3,-111.6"
         style="fill:#aac9f8;fill-opacity:1;fill-rule:nonzero;stroke:none"
         id="path32" /><path
         d="m 18349.4,4155.6 h -6407.6 c -49.9,0 -90.3,50 -90.3,111.7 v 0 c 0,61.7 40.4,111.7 90.3,111.7 h 6407.6 c 49.9,0 90.3,-50 90.3,-111.7 v 0 c 0,-61.7 -40.4,-111.7 -90.3,-111.7"
         style="fill:#aac9f8;fill-opacity:1;fill-rule:nonzero;stroke:none"
         id="path34" /><path
         d="m 18349.4,3182 h -6407.6 c -49.9,0 -90.3,50 -90.3,111.6 v 0 c 0,61.7 40.4,111.7 90.3,111.7 h 6407.6 c 49.9,0 90.3,-50 90.3,-111.7 v 0 c 0,-61.6 -40.4,-111.6 -90.3,-111.6"
         style="fill:#aac9f8;fill-opacity:1;fill-rule:nonzero;stroke:none"
         id="path36" /><path
         d="m 10561.2,11065.6 h 733.4 v 676.1 h -733.4 z m 822.6,-89.2 H 10472 v 854.4 h 911.8 v -854.4"
         style="fill:#aac9f8;fill-opacity:1;fill-rule:nonzero;stroke:none"
         id="path38" /><path
         d="m 10561.2,10088.5 h 733.4 v 676.1 h -733.4 z m 822.6,-89.2 H 10472 v 854.5 h 911.8 v -854.5"
         style="fill:#aac9f8;fill-opacity:1;fill-rule:nonzero;stroke:none"
         id="path40" /><path
         d="m 18349.4,11946.3 h -6407.6 c -49.9,0 -90.3,50 -90.3,111.6 v 0 c 0,61.7 40.4,111.7 90.3,111.7 h 6407.6 c 49.9,0 90.3,-50 90.3,-111.7 v 0 c 0,-61.6 -40.4,-111.6 -90.3,-111.6"
         style="fill:#aac9f8;fill-opacity:1;fill-rule:nonzero;stroke:none"
         id="path42" /><path
         d="m 10561.2,12035.4 h 733.4 v 676.2 h -733.4 z m 822.6,-89.1 H 10472 v 854.4 h 911.8 v -854.4"
         style="fill:#aac9f8;fill-opacity:1;fill-rule:nonzero;stroke:none"
         id="path44" /><path
         d="m 10561.2,9111.5 h 733.4 v 676.1 h -733.4 z m 822.6,-89.2 H 10472 v 854.4 h 911.8 v -854.4"
         style="fill:#aac9f8;fill-opacity:1;fill-rule:nonzero;stroke:none"
         id="path46" /><path
         d="m 10561.2,8134.4 h 733.4 v 676.1 h -733.4 z m 822.6,-89.2 H 10472 v 854.5 h 911.8 v -854.5"
         style="fill:#aac9f8;fill-opacity:1;fill-rule:nonzero;stroke:none"
         id="path48" /><path
         d="m 10561.2,7157.4 h 733.4 v 676.1 h -733.4 z m 822.6,-89.2 H 10472 v 854.4 h 911.8 v -854.4"
         style="fill:#aac9f8;fill-opacity:1;fill-rule:nonzero;stroke:none"
         id="path50" /><path
         d="m 10561.2,6180.3 h 733.4 v 676.1 h -733.4 z m 822.6,-89.1 H 10472 v 854.4 h 911.8 v -854.4"
         style="fill:#aac9f8;fill-opacity:1;fill-rule:nonzero;stroke:none"
         id="path52" /><path
         d="m 10561.2,5221.8 h 733.4 v 676.1 h -733.4 z m 822.6,-89.1 H 10472 v 854.4 h 911.8 v -854.4"
         style="fill:#aac9f8;fill-opacity:1;fill-rule:nonzero;stroke:none"
         id="path54" /><path
         d="m 10561.2,4244.8 h 733.4 v 676.1 h -733.4 z m 822.6,-89.2 H 10472 v 854.5 h 911.8 v -854.5"
         style="fill:#aac9f8;fill-opacity:1;fill-rule:nonzero;stroke:none"
         id="path56" /><path
         d="m 10561.2,3271.1 h 733.4 v 676.2 h -733.4 z m 822.6,-89.1 H 10472 v 854.4 h 911.8 V 3182"
         style="fill:#aac9f8;fill-opacity:1;fill-rule:nonzero;stroke:none"
         id="path58" /><path
         d="m 10910.2,11144 -27.3,51.3 c -69.9,131.9 -211.1,384.7 -212.5,387.3 -8.4,15 -3,34 12.1,42.4 15,8.4 34,3 42.4,-12 1.3,-2.3 111.8,-200.2 186,-337.7 161.1,290.3 426,726.4 428.8,731 9,14.7 28.2,19.4 42.9,10.5 14.7,-9 19.4,-28.2 10.5,-42.9 -3,-4.9 -299.7,-493.3 -455.2,-778.9 l -27.7,-51"
         style="fill:#ff424d;fill-opacity:1;fill-rule:nonzero;stroke:none"
         id="path60" /><path
         d="m 10910.2,10210.7 -27.3,51.4 c -69.9,131.8 -211.1,384.7 -212.5,387.2 -8.4,15.1 -3,34.1 12.1,42.5 15,8.4 34,3 42.4,-12.1 1.3,-2.2 111.8,-200.1 186,-337.6 161.1,290.2 426,726.3 428.8,731 9,14.7 28.2,19.3 42.9,10.4 14.7,-8.9 19.4,-28.1 10.5,-42.9 -3,-4.9 -299.7,-493.3 -455.2,-778.8 l -27.7,-51.1"
         style="fill:#ff424d;fill-opacity:1;fill-rule:nonzero;stroke:none"
         id="path62" /><path
         d="m 10910.2,9217.4 -27.3,51.3 c -69.9,131.9 -211.1,384.7 -212.5,387.3 -8.4,15 -3,34 12.1,42.4 15,8.4 34,3.1 42.4,-12 1.3,-2.2 111.8,-200.2 186,-337.6 161.1,290.2 426,726.3 428.8,730.9 9,14.7 28.2,19.4 42.9,10.5 14.7,-9 19.4,-28.2 10.5,-42.9 -3,-4.9 -299.7,-493.3 -455.2,-778.9 l -27.7,-51"
         style="fill:#ff424d;fill-opacity:1;fill-rule:nonzero;stroke:none"
         id="path64" /><path
         d="m 10910.2,8225.6 -27.3,51.3 c -69.9,131.9 -211.1,384.8 -212.5,387.3 -8.4,15.1 -3,34.1 12.1,42.5 15,8.4 34,3 42.4,-12.1 1.3,-2.2 111.8,-200.1 186,-337.6 161.1,290.2 426,726.3 428.8,730.9 9,14.8 28.2,19.4 42.9,10.5 14.7,-9 19.4,-28.2 10.5,-42.9 -3,-4.9 -299.7,-493.3 -455.2,-778.9 l -27.7,-51"
         style="fill:#ff424d;fill-opacity:1;fill-rule:nonzero;stroke:none"
         id="path66" /><path
         d="M 26244.7,1671.7 H 3176.56 c -25.29,0 -45.8,20.5 -45.8,45.8 v 5 c 0,25.3 20.51,45.8 45.8,45.8 H 26244.7 c 25.3,0 45.8,-20.5 45.8,-45.8 v -5 c 0,-25.3 -20.5,-45.8 -45.8,-45.8"
         style="fill:#000000;fill-opacity:1;fill-rule:nonzero;stroke:none"
         id="path68" /><path
         d="m 24295.6,1756.3 h 83.7 l -183.7,3005.5 h -206.9 l 306.9,-3005.5"
         style="fill:#4c222e;fill-opacity:1;fill-rule:nonzero;stroke:none"
         id="path70" /><path
         d="m 21373.3,1756.3 h -83.7 l 183.7,3005.5 h 206.8 l -306.8,-3005.5"
         style="fill:#4c222e;fill-opacity:1;fill-rule:nonzero;stroke:none"
         id="path72" /><path
         d="M 24966.9,8964.3 H 23165 l -953.2,-4243.9 2064.8,220.2 690.3,4023.7"
         style="fill:#fec786;fill-opacity:1;fill-rule:nonzero;stroke:none"
         id="path74" /><path
         d="m 20831,5212.7 c 0,0 2376.5,-60 3083.2,-60 114,0 211.8,83.2 232.5,197.9 l 628.3,3478.7 c 16.9,93.4 106.2,154.5 197.7,133.8 87.2,-19.8 141.7,-109.2 125.5,-199 l -711.8,-3940.8 c -5.5,-30.5 -18.9,-57.5 -37.5,-79.4 -45.8,-87 -135.6,-146.2 -239,-146.2 h -3270.3 c -149.9,0 -271.4,124.3 -271.4,277.5 v 0 c 0,153.3 112.9,337.5 262.8,337.5"
         style="fill:#f99247;fill-opacity:1;fill-rule:nonzero;stroke:none"
         id="path76" /><path
         d="m 23914.2,5139.2 c 120.4,0 223.7,87.9 245.5,209 l 628.3,3478.6 c 7.6,41.7 30.8,77.6 65.3,101 34.6,23.4 76,31.3 116.6,22.1 7.1,-1.7 14.2,2.9 15.8,10.2 1.5,7.3 -3,14.6 -10.1,16.2 -47.7,10.8 -96.3,1.6 -136.9,-25.9 -40.6,-27.5 -67.8,-69.7 -76.7,-118.7 l -628.3,-3478.6 c -19.5,-108.3 -111.9,-186.9 -219.5,-186.9 -7.3,0 -13.2,-6 -13.2,-13.5 0,-7.5 5.9,-13.5 13.2,-13.5"
         style="fill:#21111d;fill-opacity:1;fill-rule:nonzero;stroke:none"
         id="path78" /><path
         d="m 22737.2,4581.9 v 0 l 1282.7,2.3 c 345.5,-31.8 386.6,270.5 388.6,287.1 l 76.3,422.2 c 1.3,7.4 -3.5,14.4 -10.6,15.8 -7.3,1.3 -14.1,-3.5 -15.5,-10.8 l -76.5,-423.8 c -1.1,-12 -33,-294 -360.5,-263.5 l -1.3,0.1 -1283.3,-2.4 c -7.3,0 -13.2,-6.1 -13.2,-13.5 0,-7.5 6,-13.5 13.3,-13.5"
         style="fill:#21111d;fill-opacity:1;fill-rule:nonzero;stroke:none"
         id="path80" /><path
         d="m 24272.7,8950.8 v 0 l 630.5,0.9 c 7.3,0 13.3,6.1 13.3,13.6 -0.1,7.4 -6,13.5 -13.3,13.5 v 0 l -630.5,-1 c -7.3,0 -13.3,-6.1 -13.2,-13.5 0,-7.5 5.9,-13.5 13.2,-13.5"
         style="fill:#21111d;fill-opacity:1;fill-rule:nonzero;stroke:none"
         id="path82" /><path
         d="m 23517.6,7577 -206.2,-89.1 -229.3,-108.8 c 0,0 -356.2,-61.8 -361.3,-60.7 -0.8,0.2 29.6,-53 29.6,-53 -441.9,-54.5 -1834.8,-111.7 -2063.4,-137.2 -137.9,-15.4 -270.3,-186.8 -353.9,-320.5 l 113.3,-76.7 c 0,0 1216.3,53.7 1213.9,28.1 -0.8,-8 -35.1,-128.8 -88.4,-286.8 751.2,-50.2 1803.3,-45.4 1998.7,264.2 160.2,254 4,618.6 -53,840.5"
         style="fill:#fe9f73;fill-opacity:1;fill-rule:nonzero;stroke:none"
         id="path84" /><path
         d="m 18825.3,2149.9 924.2,-12.6 13.3,864.1 -920.7,114.1 -16.8,-965.6"
         style="fill:#fe9f73;fill-opacity:1;fill-rule:nonzero;stroke:none"
         id="path86" /><path
         d="m 21666.9,5198.5 c 0,0 795.7,-13.1 1353.3,6 179,6.1 338.3,-6.5 432.6,14.5 388.2,86.2 483.8,1297.9 43.1,2040.2 -440.8,742.4 -1982.8,-1536.9 -1982.8,-1536.9 l 153.8,-523.8"
         style="fill:#49263e;fill-opacity:1;fill-rule:nonzero;stroke:none"
         id="path88" /><path
         d="m 20227.1,2117.2 924.2,-12.6 13.3,864.1 -920.6,114 -16.9,-965.5"
         style="fill:#fe9f73;fill-opacity:1;fill-rule:nonzero;stroke:none"
         id="path90" /><path
         d="m 20810.2,6820.1 c 0,0 -1954.5,-124.9 -2010.9,-350.7 -56.4,-225.7 -218.1,-2625.3 -97.2,-3649 0,0 741.6,-51.1 1096.2,34.9 l 86.3,2496.2 585.4,67.2 1341,1612.2 -1000.8,-210.8"
         style="fill:#35182e;fill-opacity:1;fill-rule:nonzero;stroke:none"
         id="path92" /><path
         d="m 21749.2,6857 c 0,0 -1507.3,-425.3 -1563.7,-651 -56.4,-225.7 -217,-2367.3 -96.1,-3391 0,0 797.3,-45.7 1152,40.3 l 95.6,2354.7 343.9,-12 834,1467.4 -765.7,191.6"
         style="fill:#49263e;fill-opacity:1;fill-rule:nonzero;stroke:none"
         id="path94" /><path
         d="m 20762.9,2787.2 c 352.4,0 478,53 484,55.6 l 7.7,3.5 92.6,2368.5 -145.6,-68.6 11.6,-24.6 105,49.5 -90,-2306.2 c -38.2,-13.2 -220.9,-65.9 -652.5,-46 l -1.2,-27.2 c 69,-3.2 131.6,-4.5 188.4,-4.5"
         style="fill:#21111d;fill-opacity:1;fill-rule:nonzero;stroke:none"
         id="path96" /><path
         d="m 21093.4,3297.9 c 37.6,145.1 48.3,1559.9 48.8,1620.1 l -27.3,0.2 c -0.1,-14.7 -11.1,-1471.6 -47.9,-1613.5 l 26.4,-6.8"
         style="fill:#21111d;fill-opacity:1;fill-rule:nonzero;stroke:none"
         id="path98" /><path
         d="m 19692.6,5298.3 c 178.8,57.8 424.8,66.5 427.2,66.5 l -0.9,27.2 c -2.5,0 -252.2,-8.8 -434.6,-67.9 l 8.3,-25.8"
         style="fill:#21111d;fill-opacity:1;fill-rule:nonzero;stroke:none"
         id="path100" /><path
         d="m 19290.5,2792.2 c 301,0 508.9,49.4 511,49.9 l 10.1,2.4 87.2,2524 -111.4,-89.7 17.1,-21.2 65.1,52.4 -84.5,-2443.7 c -46.1,-10 -247,-49.6 -521,-46.8 l -0.3,-27.2 c 9,0 17.9,-0.1 26.7,-0.1"
         style="fill:#21111d;fill-opacity:1;fill-rule:nonzero;stroke:none"
         id="path102" /><path
         d="m 19669.6,3245.3 c 37.4,219.1 1.7,1702.3 0.2,1765.3 l -27.2,-0.7 c 0.4,-15.4 37.2,-1543.5 0.2,-1760 l 26.8,-4.6"
         style="fill:#21111d;fill-opacity:1;fill-rule:nonzero;stroke:none"
         id="path104" /><path
         d="m 22265.6,5173.1 c 347.2,0 763.4,11.8 1231.3,47 l -2,27.1 c -1394.2,-105.1 -2329.2,-1.2 -2338.4,-0.1 l -3.1,-26.9 c 6.2,-0.7 422.9,-47.1 1112.2,-47.1"
         style="fill:#21111d;fill-opacity:1;fill-rule:nonzero;stroke:none"
         id="path106" /><path
         d="m 21788.3,7617 c -26.9,0.5 -1109.6,-465.2 -1109.6,-465.2 l 218.2,-417.5 607.6,133.4 283.8,749.3"
         style="fill:#7fc6a6;fill-opacity:1;fill-rule:nonzero;stroke:none"
         id="path108" /><path
         d="m 23357.1,9557.6 c 0,0 460.3,16.1 680.1,-108.4 328,-185.8 211.1,-1250.1 211.1,-1250.1 0,0 -278.7,152.1 -295.5,202.8 -16.9,50.6 -595.7,1155.7 -595.7,1155.7"
         style="fill:#7fc6a6;fill-opacity:1;fill-rule:nonzero;stroke:none"
         id="path110" /><path
         d="m 23468.7,7247.6 c -0.5,-0.3 -1.1,-0.4 -1.6,-0.6 l -338.7,-77.5 c -6.9,-1.5 -13.7,2.7 -15.2,9.6 -1.6,6.8 2.7,13.6 9.5,15.1 l 338.7,77.5 c 6.8,1.6 13.6,-2.7 15.2,-9.5 1.4,-6.2 -2,-12.4 -7.9,-14.6"
         style="fill:#21111d;fill-opacity:1;fill-rule:nonzero;stroke:none"
         id="path112" /><path
         d="m 23645.7,7448.9 -206.2,-89.1 -229.3,-108.8 c 0,0 -356.2,-61.8 -361.3,-60.7 -0.8,0.2 29.6,-53 29.6,-53 -441.9,-54.5 -1834.8,-111.7 -2063.4,-137.2 -137.9,-15.4 -270.3,-186.8 -353.9,-320.6 l 113.2,-76.6 c 0,0 1216.4,53.7 1213.9,28.1 -0.7,-8 -35,-128.8 -88.3,-286.8 751.2,-50.2 1803.3,-45.4 1998.7,264.2 160.2,254 4,618.6 -53,840.5"
         style="fill:#f9b59d;fill-opacity:1;fill-rule:nonzero;stroke:none"
         id="path114" /><path
         d="m 23802.7,9474.5 c -261.7,36.3 -952.1,61.3 -952.1,61.3 0,0 -91.4,-24 -62.3,-10.5 -762.5,-134.7 -846.7,-700.1 -846.7,-700.1 l -372.2,-1633.8 -414.2,-22.4 c -134,-254 -35.6,-939.1 -35.6,-939.1 l 2006,-226.1 c 0,0 433.6,-71.4 800.4,398.9 242.6,311.2 325.1,1266.5 325,1964.5 0,0 -41.7,1051 -448.3,1107.3"
         style="fill:#7fc6a6;fill-opacity:1;fill-rule:nonzero;stroke:none"
         id="path116" /><path
         d="m 18183.9,8209.4 h 1910 L 20760,6513 h -1909.9 l -666.2,1696.4"
         style="fill:#ff424d;fill-opacity:1;fill-rule:nonzero;stroke:none"
         id="path118" /><path
         d="m 20760,6513 h -99.6 l -666.1,1696.4 h 99.6 L 20760,6513"
         style="fill:#f22f41;fill-opacity:1;fill-rule:nonzero;stroke:none"
         id="path120" /><path
         d="m 19432.6,7415.2 c 26.5,-77.9 7.1,-154.9 -43.3,-172.1 -50.4,-17.1 -112.7,32.2 -139.2,110.1 -26.5,77.9 -7.1,155 43.3,172.1 50.4,17.2 112.7,-32.1 139.2,-110.1"
         style="fill:#e2f2f1;fill-opacity:1;fill-rule:nonzero;stroke:none"
         id="path122" /><path
         d="m 21391.4,6650 h -713.5 v -137 h 713.5 c 37.9,0 68.5,30.6 68.5,68.5 v 0 c 0,37.8 -30.6,68.5 -68.5,68.5"
         style="fill:#f22f41;fill-opacity:1;fill-rule:nonzero;stroke:none"
         id="path124" /><path
         d="M 21210.8,6581.5 H 20760 v 21.4 h 450.8 v -21.4"
         style="fill:#e23e3d;fill-opacity:1;fill-rule:nonzero;stroke:none"
         id="path126" /><path
         d="m 23128.4,7163.1 c -2.3,-0.8 -4.9,-1.1 -7.4,-0.5 -6.8,1.6 -11,8.5 -9.4,15.3 2.1,8.9 211.7,900.2 300.9,1461 1.1,7 7.7,11.7 14.5,10.6 6.9,-1.1 11.7,-7.6 10.6,-14.5 -89.4,-561.8 -299.3,-1454 -301.4,-1462.9 -1,-4.3 -4,-7.5 -7.8,-9"
         style="fill:#21111d;fill-opacity:1;fill-rule:nonzero;stroke:none"
         id="path128" /><path
         d="m 21830.9,7177.8 c -2.6,-1 -5.5,-1.1 -8.3,-0.3 -6.7,2.1 -10.4,9.3 -8.3,15.9 3.2,10 314.2,996.9 379.2,1338.2 1.3,6.8 7.9,11.3 14.8,10 6.9,-1.3 11.4,-7.9 10.1,-14.8 -65.3,-342.6 -376.8,-1331.1 -379.9,-1341 -1.2,-3.8 -4.1,-6.7 -7.6,-8"
         style="fill:#21111d;fill-opacity:1;fill-rule:nonzero;stroke:none"
         id="path130" /><path
         d="m 23095.4,9056.9 c -9.8,-1 -19.8,-1.9 -29.9,-2.6 -5.8,-0.4 -10.9,4 -11.3,9.8 -0.4,5.8 3.8,10.8 9.8,11.2 436.3,30.7 517.3,350.1 517.9,353.3 1.1,5.6 6.5,9.5 12.1,8.5 5.7,-0.9 9.5,-6.1 8.7,-11.7 -0.4,-3.3 -81,-324.4 -507.3,-368.5"
         style="fill:#21111d;fill-opacity:1;fill-rule:nonzero;stroke:none"
         id="path132" /><path
         d="m 21741.8,7413.3 c -5.6,-2.1 -12.2,0.1 -15.4,5.5 l -85,145.7 1.1,4.9 286.6,1258.1 c 1.8,11.4 26.6,158 150.9,319.7 116.5,151.5 346.3,344.3 779.2,401.9 6.9,0.9 13.3,-4 14.2,-10.9 0.9,-6.9 -3.9,-13.3 -10.9,-14.2 -423.5,-56.4 -647.9,-243.8 -761.5,-391.1 -123.2,-159.7 -146.7,-308.1 -146.9,-309.6 l -0.2,-0.9 -285.6,-1253.8 80,-137.1 c 3.6,-6 1.5,-13.8 -4.5,-17.3 -0.7,-0.3 -1.3,-0.7 -2,-0.9"
         style="fill:#21111d;fill-opacity:1;fill-rule:nonzero;stroke:none"
         id="path134" /><path
         d="m 21293.3,7408.7 c -6.4,-2.4 -13.7,0.7 -16.2,7.2 -2.6,6.5 0.6,13.8 7,16.4 l 366.1,146 c 6.7,2.4 13.8,-0.5 16.4,-7 2.6,-6.5 -0.6,-13.9 -7,-16.5 l -366.1,-146 c 0,0 -0.1,-0.1 -0.2,-0.1"
         style="fill:#21111d;fill-opacity:1;fill-rule:nonzero;stroke:none"
         id="path136" /><path
         d="m 21155.2,7169 c 0,0 -132.3,-312.5 -35.6,-939.1 l 484.1,259.8 -143.8,468.1 -304.7,211.2"
         style="fill:#7fc6a6;fill-opacity:1;fill-rule:nonzero;stroke:none"
         id="path138" /><path
         d="m 23565.9,7151.9 c -1.5,-0.6 -3.2,-0.9 -4.9,-0.9 -18.1,0.6 -1810.4,54.4 -2396.9,6 -14.4,-38.5 -80.5,-237.4 -62,-601.3 0.3,-7 -5,-13 -12,-13.3 -7,-0.4 -13,5 -13.3,12 -21,412.4 63.2,611.4 66.8,619.6 l 3,7 7.6,0.6 c 579.5,49.6 2389.4,-4.7 2407.6,-5.2 7,-0.2 12.5,-6.1 12.3,-13.1 -0.2,-5.3 -3.6,-9.7 -8.2,-11.4"
         style="fill:#21111d;fill-opacity:1;fill-rule:nonzero;stroke:none"
         id="path140" /><path
         d="m 22746.4,10486 -14.3,-551.3 c 0,0 -11.9,-177.1 142.6,-203.3 l -35.1,-235.7 c -13.1,-87.6 37.3,-173.1 121,-202 41,-14.2 90,-25 145.9,-26.4 177.2,-4.6 276.6,125.8 293.1,191.9 16.5,66.1 -19.6,384.8 -19.6,384.8 l 9.5,155.9 -4.5,605.1 -638.6,-119"
         style="fill:#fe9f73;fill-opacity:1;fill-rule:nonzero;stroke:none"
         id="path142" /><path
         d="m 23238.1,9872.7 c 0,0 -18.1,-296.4 -389.3,-315.1 l 25.9,173.8 c 0,0 239,-54.5 363.4,141.3"
         style="fill:#f07162;fill-opacity:1;fill-rule:nonzero;stroke:none"
         id="path144" /><path
         d="m 23166.8,10185.7 c 1.9,0 3.7,0.6 5.2,2 3,2.7 3.2,7.4 0.5,10.4 -1,1.1 -99.9,107.6 -194.6,35.2 -3.3,-2.4 -3.9,-7.1 -1.4,-10.3 2.5,-3.3 7.1,-3.9 10.3,-1.4 84,64.1 171.1,-29.4 174.8,-33.4 1.4,-1.6 3.3,-2.4 5.2,-2.5"
         style="fill:#49263e;fill-opacity:1;fill-rule:nonzero;stroke:none"
         id="path146" /><path
         d="m 23423.3,10256.6 -160.2,-29 -29.6,-29.1 c 0,0 20.7,266.8 52.1,318.6 31.4,51.7 137.7,-260.5 137.7,-260.5"
         style="fill:#49263e;fill-opacity:1;fill-rule:nonzero;stroke:none"
         id="path148" /><path
         d="m 22863.6,10237.9 c 2,0 4.1,0.8 5.6,2.5 2.8,3 2.6,7.6 -0.4,10.4 -3,2.6 -71.8,64.7 -117.4,27.7 -3.1,-2.6 -3.6,-7.2 -1,-10.4 2.5,-3.2 7.2,-3.7 10.4,-1.1 35.6,29 97.4,-26.6 98,-27.1 1.4,-1.3 3.1,-1.9 4.8,-2"
         style="fill:#49263e;fill-opacity:1;fill-rule:nonzero;stroke:none"
         id="path150" /><path
         d="m 23016.7,10159.8 c -0.3,-12.3 9.4,-22.4 21.6,-22.8 12.2,-0.3 22.4,9.4 22.7,21.6 0.3,12.3 -9.3,22.4 -21.6,22.8 -12.2,0.3 -22.4,-9.4 -22.7,-21.6"
         style="fill:#000000;fill-opacity:1;fill-rule:nonzero;stroke:none"
         id="path152" /><path
         d="m 22781.8,10188 c -0.3,-12.2 9.4,-22.4 21.6,-22.7 12.2,-0.3 22.4,9.3 22.7,21.6 0.3,12.2 -9.3,22.4 -21.6,22.7 -12.2,0.3 -22.4,-9.3 -22.7,-21.6"
         style="fill:#000000;fill-opacity:1;fill-rule:nonzero;stroke:none"
         id="path154" /><path
         d="m 23199.9,10162.7 c -1.9,-73.4 56,-134.5 129.5,-136.4 73.4,-1.9 134.4,56.1 136.3,129.5 1.9,73.4 -56,134.5 -129.4,136.4 -73.5,1.9 -134.5,-56.1 -136.4,-129.5"
         style="fill:#fe9f73;fill-opacity:1;fill-rule:nonzero;stroke:none"
         id="path156" /><path
         d="m 23354.1,10084.9 c 27.7,-0.7 46.6,19.5 53.3,40.1 7.8,24.4 0.2,48.4 -19.4,61.3 -29,19 -56,8 -69.9,-0.6 6.1,14.9 15.4,25.7 27.7,32 26.5,13.7 58.8,2.4 59.1,2.3 1.9,-0.7 4,0.3 4.7,2.2 0.7,1.9 -0.3,4 -2.2,4.7 -1.4,0.5 -35.5,12.6 -65,-2.6 -17,-8.8 -28.8,-24.8 -35.1,-47.6 l -3.6,-12.7 9.7,9.1 c 1.3,1.3 33.7,31.2 70.5,7 20.4,-13.3 21.6,-36.8 16.4,-52.8 -5.3,-16.6 -20.5,-35.7 -45.9,-35 -0.3,0 -0.5,0 -0.8,0 -2,0 -3.7,-1.5 -3.8,-3.6 -0.1,-2 1.5,-3.7 3.6,-3.8 0.2,0 0.5,0 0.7,0"
         style="fill:#f07162;fill-opacity:1;fill-rule:nonzero;stroke:none"
         id="path158" /><path
         d="m 22934.7,10012.4 c 1.6,-0.1 3,0.9 3.6,2.4 0.7,1.9 -0.3,4 -2.3,4.7 l -73.3,26.4 27.9,173.6 c 0.3,2 -1.1,3.9 -3.1,4.2 -2,0.4 -3.9,-1 -4.2,-3 l -28.9,-179.7 79.1,-28.4 c 0.4,-0.2 0.8,-0.2 1.2,-0.2"
         style="fill:#f07162;fill-opacity:1;fill-rule:nonzero;stroke:none"
         id="path160" /><path
         d="m 22990.2,9938.9 c -2.3,0.5 -146.1,7.7 -146.1,7.7 0,0 16.5,-60.1 69.9,-62.8 53.5,-2.8 76.2,55.1 76.2,55.1"
         style="fill:#fbfdfc;fill-opacity:1;fill-rule:nonzero;stroke:none"
         id="path162" /><path
         d="m 23423.3,10256.6 c 0,0 51.6,257.7 -25.1,356.2 -76.8,98.6 -527.2,279.2 -583.6,232.4 -56.3,-46.8 -2.7,-106.8 -2.7,-106.8 0,0 -181.1,63.3 -226.7,-97.6 -45.5,-160.9 345.5,-240 581.7,-170.2 0,0 153.8,-49.3 256.4,-214"
         style="fill:#49263e;fill-opacity:1;fill-rule:nonzero;stroke:none"
         id="path164" /><path
         d="m 23475.1,6041.5 c -29.7,-11.2 -57.8,-20 -83.6,-26.9 -155,-41.1 -263.4,-24 -267.9,-23.3 -6.9,1.2 -11.6,7.7 -10.4,14.6 1.1,6.9 7.6,11.6 14.5,10.4 1.1,-0.1 108.5,-16.9 258.6,23.2 138.5,36.9 342.8,131.3 529.7,371 234.6,300.8 320.2,1227.1 322.3,1928.8 0,7 5.7,12.7 12.7,12.6 7,0 12.7,-5.7 12.7,-12.7 -2.1,-705.7 -89.2,-1638.4 -327.7,-1944.3 -157,-201.2 -326.4,-302.5 -460.9,-353.4"
         style="fill:#21111d;fill-opacity:1;fill-rule:nonzero;stroke:none"
         id="path166" /><path
         d="m 19758.2,1956.7 h -798.3 l -323.7,352.7 -592.1,-352.7 h -127.5 c -43.9,0 -84.2,-29.7 -92.5,-72.8 -11.1,-58.1 33.1,-108.9 89.2,-108.9 h 1856.3 c 13.6,0 24.7,11.1 24.7,24.7 v 121 c 0,19.9 -16.2,36 -36.1,36"
         style="fill:#e23e3d;fill-opacity:1;fill-rule:nonzero;stroke:none"
         id="path168" /><path
         d="m 19751.2,1955.7 v 327.8 c 0,0 -134.5,181 -339.2,88.6 0,0 -309.7,-219.7 -582.6,46.1 l -677.8,-300.7 c 0,0 -185.9,-62.1 -236.2,-161.8 h 1835.8"
         style="fill:#f46277;fill-opacity:1;fill-rule:nonzero;stroke:none"
         id="path170" /><path
         d="m 19758,1957.3 h -13.6 v 326.2 h 13.6 v -326.2"
         style="fill:#000000;fill-opacity:1;fill-rule:nonzero;stroke:none"
         id="path172" /><path
         d="m 19134.5,2279.9 c -26,0 -41.6,2.2 -42.1,2.3 l 2,13.4 c 1.6,-0.2 161.6,-22.6 313.7,82.1 l 7.7,-11.2 c -109,-75 -222,-86.6 -281.3,-86.6"
         style="fill:#000000;fill-opacity:1;fill-rule:nonzero;stroke:none"
         id="path174" /><path
         d="m 19586.2,2016.9 -7.6,11.3 86.6,58.4 7.6,-11.3 -86.6,-58.4"
         style="fill:#000000;fill-opacity:1;fill-rule:nonzero;stroke:none"
         id="path176" /><path
         d="m 19524.1,2033.5 -7.6,11.2 86.6,58.4 7.6,-11.3 -86.6,-58.3"
         style="fill:#000000;fill-opacity:1;fill-rule:nonzero;stroke:none"
         id="path178" /><path
         d="m 17850.1,1790.8 c -21.9,18.6 -34.5,45.7 -34.5,74.5 0,53.8 43.8,97.6 97.7,97.6 h 1835.4 c 28.9,0 52.4,-23.5 52.4,-52.3 V 1820 h -13.6 v 90.6 c 0,21.4 -17.4,38.7 -38.8,38.7 h -1835.4 c -46.4,0 -84.1,-37.7 -84.1,-84 0,-24.8 10.8,-48.1 29.7,-64.2 l -8.8,-10.3"
         style="fill:#000000;fill-opacity:1;fill-rule:nonzero;stroke:none"
         id="path180" /><path
         d="m 17919.4,1953.2 -12.3,5.8 c 1.5,3.3 38.7,79.5 177.5,138.6 136.3,58.2 736,324.2 742,326.9 l 5.5,-12.5 c -6,-2.6 -605.8,-268.7 -742.2,-326.9 -133.5,-56.9 -170.2,-131.1 -170.5,-131.9"
         style="fill:#000000;fill-opacity:1;fill-rule:nonzero;stroke:none"
         id="path182" /><path
         d="m 21176.9,1956.7 h -798.3 l -323.7,352.7 -592,-352.7 h -127.6 c -43.9,0 -84.2,-29.7 -92.5,-72.8 -11.1,-58.1 33.1,-108.9 89.2,-108.9 h 1856.3 c 13.7,0 24.7,11.1 24.7,24.7 v 121 c 0,19.9 -16.1,36 -36.1,36"
         style="fill:#ff424d;fill-opacity:1;fill-rule:nonzero;stroke:none"
         id="path184" /><path
         d="m 21169.9,1955.7 v 327.8 c 0,0 -134.5,181 -339.2,88.6 0,0 -309.6,-219.7 -582.6,46.1 l -677.8,-300.7 c 0,0 -185.9,-62.1 -236.2,-161.8 h 1835.8"
         style="fill:#fd7583;fill-opacity:1;fill-rule:nonzero;stroke:none"
         id="path186" /><path
         d="m 21176.7,1957.3 h -13.6 v 326.2 h 13.6 v -326.2"
         style="fill:#000000;fill-opacity:1;fill-rule:nonzero;stroke:none"
         id="path188" /><path
         d="m 20553.2,2279.9 c -26,0 -41.6,2.2 -42.1,2.3 l 2,13.4 c 1.6,-0.2 161.6,-22.6 313.8,82.1 l 7.7,-11.2 c -109.1,-75 -222.1,-86.6 -281.4,-86.6"
         style="fill:#000000;fill-opacity:1;fill-rule:nonzero;stroke:none"
         id="path190" /><path
         d="m 21004.9,2016.9 -7.6,11.3 86.6,58.4 7.6,-11.3 -86.6,-58.4"
         style="fill:#000000;fill-opacity:1;fill-rule:nonzero;stroke:none"
         id="path192" /><path
         d="m 20942.8,2033.5 -7.6,11.2 86.6,58.4 7.6,-11.3 -86.6,-58.3"
         style="fill:#000000;fill-opacity:1;fill-rule:nonzero;stroke:none"
         id="path194" /><path
         d="m 19268.8,1790.8 c -21.9,18.6 -34.5,45.7 -34.5,74.5 0,53.8 43.8,97.6 97.7,97.6 h 1835.5 c 28.8,0 52.3,-23.5 52.3,-52.3 V 1820 h -13.6 v 90.6 c 0,21.4 -17.4,38.7 -38.7,38.7 H 19332 c -46.4,0 -84.1,-37.7 -84.1,-84 0,-24.8 10.8,-48.1 29.7,-64.2 l -8.8,-10.3"
         style="fill:#000000;fill-opacity:1;fill-rule:nonzero;stroke:none"
         id="path196" /><path
         d="m 19338.1,1953.2 -12.3,5.8 c 1.5,3.3 38.7,79.5 177.5,138.6 136.3,58.2 736,324.2 742,326.9 l 5.6,-12.5 c -6.1,-2.6 -605.9,-268.7 -742.3,-326.9 -133.5,-56.9 -170.1,-131.1 -170.5,-131.9"
         style="fill:#000000;fill-opacity:1;fill-rule:nonzero;stroke:none"
         id="path198" /><path
         d="m 10335.4,13116.8 c -332.4,-47.4 -765.25,261 -1156.65,306.7 -391.39,45.7 -468.83,620.6 -468.83,620.6 0,0 713.46,-50.8 854.54,-124.3 88.67,-46.2 471.84,-233.5 748.74,-374.1 121.3,-61.5 222.1,-114 269,-141.8 7.3,-4.2 13.2,-7.9 17.8,-11 0.7,-0.5 1.5,-1 2.1,-1.4 4.6,-3.3 7.4,-5.6 8.2,-7 17,-30.2 57.5,-220.3 -274.9,-267.7"
         style="fill:#f49d75;fill-opacity:1;fill-rule:nonzero;stroke:none"
         id="path200" /><path
         d="m 10582.2,13403.9 c 7.3,-4.2 13.2,-7.9 17.8,-11 -13.4,-22.7 -28.7,-45.9 -46.6,-69.1 -18.2,-23.5 -53.3,-28.8 -81.6,-13 -1.4,0.7 -2.7,1.5 -4.1,2.4 l -149,95.9 c 0,0 -21.4,22.2 -16.9,82.8 1.4,18.8 5.9,37.3 11.4,53.8 121.3,-61.5 222.1,-114 269,-141.8"
         style="fill:#f07162;fill-opacity:1;fill-rule:nonzero;stroke:none"
         id="path202" /><path
         d="m 10616.3,13422.4 v -0.1 c -0.4,0.6 -0.8,1.2 -1.3,1.8 0.5,-0.5 0.9,-1.1 1.3,-1.7"
         style="fill:#f07162;fill-opacity:1;fill-rule:nonzero;stroke:none"
         id="path204" /><path
         d="m 10600,13392.9 c 0.7,-0.5 1.5,-1 2.1,-1.4 -12.4,-22.2 -27.2,-45.3 -44.9,-68.2 -16,-20.8 -55.8,-31.7 -80.1,-16 l -5.6,3.5 c 0.1,0 0.2,0 0.3,0 21,-6.1 51.6,6.6 64.3,23.1 18.2,23.6 33.3,47.3 46.1,70 7.3,-4.2 13.2,-7.9 17.8,-11"
         style="fill:#fdc9bc;fill-opacity:1;fill-rule:nonzero;stroke:none"
         id="path206" /><path
         d="m 10601.6,13438.8 c -0.4,0.4 -0.7,0.8 -1.1,1 l 0.1,0.1 c 0.3,-0.3 0.7,-0.7 1,-1.1"
         style="fill:#fdc9bc;fill-opacity:1;fill-rule:nonzero;stroke:none"
         id="path208" /><path
         d="m 10460.1,13134 -8.6,21.8 c 84.3,33.4 136.3,76.5 154.4,127.9 15.5,44.1 0.6,81.7 -4.3,92.1 -64.8,33.1 -1013.24,518 -1127.21,561.6 -116.42,44.6 -758.89,94.5 -765.36,95 l 1.79,23.4 c 26.59,-2.1 652.38,-50.6 771.96,-96.5 118.59,-45.4 1091.52,-543.2 1132.92,-564.3 l 3,-1.6 1.8,-3 c 1.2,-2.1 29.3,-52 7.7,-114 -20.4,-58.3 -76.9,-106.3 -168.1,-142.4"
         style="fill:#000000;fill-opacity:1;fill-rule:nonzero;stroke:none"
         id="path210" /><path
         d="m 10434.8,12335.1 c -430.2,22.7 -898.75,518.2 -1380.22,672.8 -481.48,154.5 -436.57,897.4 -436.57,897.4 0,0 885.7,-240.6 1045.1,-368.2 96.22,-77 502.59,-385.5 812.79,-627.3 151.1,-117.9 279.5,-220 337.8,-271.6 8.6,-7.6 15.6,-14.1 21,-19.3 1.2,-1.2 2.3,-2.3 3.4,-3.4 5.4,-5.4 8.5,-9.3 9.2,-11.4 13.9,-42.4 17.8,-291.7 -412.5,-269"
         style="fill:#f49d75;fill-opacity:1;fill-rule:nonzero;stroke:none"
         id="path212" /><path
         d="m 10813.7,12638.2 c 8.6,-7.6 15.6,-14.1 21,-19.3 -9,-13.1 -18.5,-26.2 -28.6,-39.2 -25.5,-33.3 -74.9,-40.5 -114.7,-18.3 h -0.1 c -1.9,1 -3.6,2.1 -5.4,3.3 l -209.1,134.5 c 0,0 -29.9,31.2 -23.7,116.2 2.5,33.8 12.2,66.9 22.8,94.4 151.1,-117.9 279.5,-220 337.8,-271.6"
         style="fill:#f07162;fill-opacity:1;fill-rule:nonzero;stroke:none"
         id="path214" /><path
         d="m 10894.4,12717.8 v -0.1 c -0.9,1.5 -2,2.8 -2.9,4.1 0.9,-1.3 1.9,-2.6 2.9,-4"
         style="fill:#f07162;fill-opacity:1;fill-rule:nonzero;stroke:none"
         id="path216" /><path
         d="m 10834.7,12618.9 c 1.2,-1.2 2.3,-2.3 3.4,-3.4 -8.4,-12.2 -17.1,-24.4 -26.6,-36.7 -22.5,-29.1 -78.4,-44.4 -112.5,-22.4 l -7.6,5 c 29.4,-8.8 72.6,9.1 90.5,32.4 11.5,14.8 22,29.6 31.8,44.4 8.6,-7.6 15.6,-14.1 21,-19.3"
         style="fill:#fdc9bc;fill-opacity:1;fill-rule:nonzero;stroke:none"
         id="path218" /><path
         d="m 10873.8,12741 c -0.5,0.5 -1,1 -1.5,1.4 v 0.1 c 0.5,-0.4 1,-1 1.5,-1.5"
         style="fill:#fdc9bc;fill-opacity:1;fill-rule:nonzero;stroke:none"
         id="path220" /><path
         d="m 10539,12321.3 -0.5,23.5 c 164.3,3.8 239.6,76 273.8,135.9 32.1,56.3 30.7,106.9 24.7,117.6 -10.5,14.9 -174.9,153.3 -1155.79,909.3 l -40.82,31.5 c -95.3,73.6 -650.64,246 -656.23,247.7 l 6.93,22.4 c 23.03,-7.1 565.02,-175.3 663.65,-251.5 l 40.79,-31.5 c 1141.47,-879.8 1156.87,-907.4 1161.97,-916.4 13.2,-23.6 7.5,-84.1 -24.8,-140.7 -30.5,-53.3 -109.2,-143.5 -293.7,-147.8"
         style="fill:#000000;fill-opacity:1;fill-rule:nonzero;stroke:none"
         id="path222" /><path
         d="m 9710.97,11052 c 0,0 -0.61,-1.8 -2.24,-5.1 -14.25,-29.4 -105.85,-170.7 -480.01,10.3 -414.74,200.5 -475.72,1370.1 -588.81,1494 -113.1,123.8 -440.73,830.3 -1097.62,551.2 0,0 -362.41,-257.7 -340.8,-527.6 0,0 516.81,-585.9 606.09,-652.3 78.37,-58.3 570.46,-405.2 462.92,-818.9 -18.38,-70.6 -81.4,-114.9 -148.41,-115.9 -2.26,-0.1 -4.45,0 -6.71,0.1 -13.26,0.3 -26.5,2.4 -39.64,6.4 -10.38,2.9 -20.66,7.2 -30.68,12.6 -123.52,67.5 -305.35,169.1 -459.8,264.9 -104.17,64.6 -195.85,126.6 -248.73,173.6 -71.27,63.3 -224.23,195.6 -386.02,334.8 -301.95,260.1 -635.39,480.7 -990.92,660.6 -343.59,173.9 -816.74,470.7 -1161.15,911.9 -517.74,663.4 -850.47,1488.7 -850.47,1488.7 l 1769.6,1133.6 527.39,-898.8 c 0,0 2436.13,-972.3 2622.85,-1088.8 186.8,-116.4 445.18,-1173.6 493.15,-1272.3 30.39,-62.5 162.99,-714.5 255.93,-1183.1 41.74,-210.2 75.38,-383.5 88.35,-450.3 3.1,-16.1 5.01,-26 5.57,-28.8 0.08,-0.6 0.16,-0.8 0.16,-0.8"
         style="fill:#f49d75;fill-opacity:1;fill-rule:nonzero;stroke:none"
         id="path224" /><path
         d="m 10851.7,11478.9 c -0.5,-49 -85.1,-309.7 -524.6,-133.3 -439.4,176.4 -750.93,858.1 -1196.92,1189.9 -446,331.8 -135.48,1088.6 -135.48,1088.6 0,0 835.88,-564.8 956.5,-754.1 72.3,-113.5 382.1,-573.8 618.3,-934.6 105.9,-161.6 197,-303.3 245.3,-384.7 5.7,-9.8 10.8,-18.5 15.3,-26.4 0.8,-1.3 1.5,-2.5 2.1,-3.8 12.7,-22.6 19.6,-37 19.5,-41.6"
         style="fill:#f49d75;fill-opacity:1;fill-rule:nonzero;stroke:none"
         id="path226" /><path
         d="m 7213,12555.8 -23.44,0.9 c 0.14,3.8 18.68,388.7 400.75,558.5 l 9.53,-21.4 c -368.37,-163.8 -386.69,-534.3 -386.84,-538"
         style="fill:#000000;fill-opacity:1;fill-rule:nonzero;stroke:none"
         id="path228" /><path
         d="m 8149.42,11046.3 c -10.86,-26.8 -22.31,-52.4 -34.24,-77.1 -13.26,0.4 -26.5,2.4 -39.64,6.4 -10.38,3 -20.66,7.2 -30.67,12.7 -123.53,67.5 -305.36,169.1 -459.81,264.9 15.44,15.1 32.38,29.7 50.82,42.4 94.31,65.1 150.83,51.4 150.83,51.4 l 298.33,-151 c 2.51,-1.3 5.01,-2.7 7.43,-4.1 h 0.08 c 52.89,-31.1 78,-93.5 56.87,-145.6"
         style="fill:#f07162;fill-opacity:1;fill-rule:nonzero;stroke:none"
         id="path230" /><path
         d="m 8153.98,11040.7 c -10.09,-24.9 -20.93,-48.8 -32.09,-71.5 -2.26,-0.1 -4.44,-0.1 -6.71,0 -13.26,0.4 -26.5,2.4 -39.64,6.4 14.49,28 28.24,57.7 41,89.2 14.75,36.6 6.1,98.9 -23.99,127.1 l 11.03,-5.5 c 48.59,-24.7 68.94,-99.8 50.4,-145.7"
         style="fill:#fdc9bc;fill-opacity:1;fill-rule:nonzero;stroke:none"
         id="path232" /><path
         d="m 9710.61,11034.3 c -6.15,-2.2 -12.47,-4.4 -18.79,-6.4 -41.28,-13.5 -87.88,9 -108.92,51.2 l -0.08,0.1 c -0.99,2 -1.89,3.9 -2.71,5.9 l -100.63,237.2 c 0,0 -7.58,44.2 47.39,113.3 26.38,33.2 61.08,59.5 89.82,77.7 41.74,-210.1 75.39,-383.4 88.35,-450.2 3.1,-16.1 5.01,-26 5.57,-28.8"
         style="fill:#f07162;fill-opacity:1;fill-rule:nonzero;stroke:none"
         id="path234" /><path
         d="m 9848.02,11094.8 h -0.09 c 0.02,2 -0.04,4 -0.18,6 0.14,-2 0.2,-4 0.27,-6"
         style="fill:#f07162;fill-opacity:1;fill-rule:nonzero;stroke:none"
         id="path236" /><path
         d="m 9710.77,11033.4 c 0,0 -0.61,-1.8 -2.24,-5 -4.21,-1.5 -8.42,-3 -12.64,-4.4 -36.22,-11.8 -92.93,7.7 -109.31,46.4 l -3.68,8.7 c 20.13,-24.6 67.54,-34.5 96.44,-25 8.76,2.8 17.36,5.9 25.7,9 3.1,-16.1 5.01,-26 5.57,-28.8 0.08,-0.6 0.16,-0.9 0.16,-0.9"
         style="fill:#fdc9bc;fill-opacity:1;fill-rule:nonzero;stroke:none"
         id="path238" /><path
         d="m 9843.75,11127.1 c -0.08,0.5 -0.24,1.1 -0.41,1.7 h 0.09 c 0.16,-0.6 0.24,-1.1 0.32,-1.7"
         style="fill:#fdc9bc;fill-opacity:1;fill-rule:nonzero;stroke:none"
         id="path240" /><path
         d="m 10814.8,11550.7 c 5.7,-9.8 10.8,-18.5 15.3,-26.4 -24.1,-20.2 -50.2,-39.9 -78.5,-58.9 -36,-24.2 -87,-15.1 -118.7,19.8 -0.1,0 -0.1,0.1 -0.2,0.1 -1.4,1.6 -2.8,3.2 -4.1,4.9 l -161.3,200.9 c 0,0 -19.3,40.5 14.9,122 22.1,52.8 62.1,97.5 87.3,122.3 105.9,-161.6 197,-303.3 245.3,-384.7"
         style="fill:#f07162;fill-opacity:1;fill-rule:nonzero;stroke:none"
         id="path242" /><path
         d="m 10883.8,11572.2 c -0.1,0 -0.1,0 -0.2,0 -0.4,1.9 -1.1,3.8 -1.7,5.8 0.7,-1.9 1.3,-3.8 1.9,-5.8"
         style="fill:#f07162;fill-opacity:1;fill-rule:nonzero;stroke:none"
         id="path244" /><path
         d="m 10832.2,11520.5 c -22.8,-19.6 -48,-39 -75.7,-57.6 -31.6,-21.3 -91.5,-17.9 -117.8,14.8 l -6,7.6 c 0.1,0 0.1,-0.1 0.2,-0.1 26,-18.3 74.4,-14.9 99.6,2 30.2,20.4 57.7,41.9 82.3,63.5 5.7,-9.8 10.8,-18.5 15.3,-26.4 0.8,-1.3 1.5,-2.5 2.1,-3.8"
         style="fill:#fdc9bc;fill-opacity:1;fill-rule:nonzero;stroke:none"
         id="path246" /><path
         d="m 8109.58,10963.6 c -29.19,0.3 -58.21,7.8 -84.88,22.4 -204.24,111.8 -566.28,316.5 -696.2,432 -61.8,54.9 -191.61,167.5 -385.8,334.7 -296.86,255.6 -629.49,477.3 -988.64,659 -339.84,171.9 -817.83,470.2 -1165.06,915.2 l 18.5,14.4 c 344.56,-441.5 819.45,-737.8 1157.15,-908.7 360.85,-182.5 695.06,-405.3 993.35,-662.1 194.3,-167.3 324.2,-280 386.08,-335 128.2,-113.9 488.52,-317.6 691.89,-428.9 44.17,-24.2 95.81,-26 141.68,-4.9 44.73,20.6 76.16,59.7 86.24,107.4 53.04,251.1 -104.29,520.6 -454.99,779.1 l -8.56,6.4 c -89.16,66.3 -586.72,629.9 -607.86,653.9 -114.7,129.1 -136.82,358.8 -137.7,368.5 l 23.36,2.1 c 0.21,-2.3 22.35,-231.8 131.91,-355.1 5.19,-5.8 517.08,-585.7 604.29,-650.6 l 8.48,-6.3 c 50.84,-37.5 185.86,-137 299.74,-278 144.73,-179.2 200.01,-355.7 164.28,-524.9 -11.62,-55 -47.84,-100.1 -99.39,-123.8 -25,-11.5 -51.5,-17.1 -77.87,-16.8"
         style="fill:#000000;fill-opacity:1;fill-rule:nonzero;stroke:none"
         id="path248" /><path
         d="m 10600,11272.2 c -50.4,0.6 -107.7,9.3 -171.8,26.3 l 6,22.7 c 153.2,-40.6 264.4,-33 330.5,22.9 65.4,55.3 64.6,141.9 63.8,158.4 -42.9,65.8 -861.54,1321.2 -929.51,1413.6 -68.56,93.3 -812.85,630.9 -820.37,636.3 l 13.73,19 c 30.79,-22.2 754.82,-545.2 825.55,-641.4 69.83,-95 896.8,-1363.4 932,-1417.3 l 1.5,-2.4 0.3,-2.9 c 0.4,-4.6 9.5,-112.4 -71.9,-181.2 -43.4,-36.8 -103.6,-54.8 -179.8,-54"
         style="fill:#000000;fill-opacity:1;fill-rule:nonzero;stroke:none"
         id="path250" /><path
         d="m 5273.51,13003.9 c -142.33,99.3 -171.44,283.7 -172.61,291.5 l 19.92,3 c 0.28,-1.8 29.13,-183.7 164.22,-278 l -11.53,-16.5"
         style="fill:#000000;fill-opacity:1;fill-rule:nonzero;stroke:none"
         id="path252" /><path
         d="m 5478.53,12954.8 c -162.23,61.7 -235.38,233.4 -238.41,240.7 l 18.59,7.8 c 0.71,-1.7 72.99,-171.1 226.97,-229.7 l -7.15,-18.8"
         style="fill:#000000;fill-opacity:1;fill-rule:nonzero;stroke:none"
         id="path254" /><path
         d="m 3528.29,15830.6 435.5,-1040.3 2489.37,149.1 L 5425.87,17241 C 4669.5,16914.4 3980.2,16350.3 3528.29,15830.6"
         style="fill:#f49d75;fill-opacity:1;fill-rule:nonzero;stroke:none"
         id="path256" /><path
         d="m 6199.78,15471.5 -738.14,1658.5 27.6,12.3 738.15,-1658.5 -27.61,-12.3"
         style="fill:#0d171e;fill-opacity:1;fill-rule:nonzero;stroke:none"
         id="path258" /><path
         d="m 4373.05,13947 c -243.36,323.9 -786.84,1732 -809.86,1791.7 l 28.2,10.9 c 5.62,-14.6 564.98,-1463.9 805.82,-1784.5 l -24.16,-18.1"
         style="fill:#0d171e;fill-opacity:1;fill-rule:nonzero;stroke:none"
         id="path260" /><path
         d="m 5495.15,14665.5 623.65,510.8 4370.5,-5336 -623.64,-510.8 -4370.51,5336"
         style="fill:#fec786;fill-opacity:1;fill-rule:nonzero;stroke:none"
         id="path262" /><path
         d="m 5687.04,14822.7 239.87,196.5 4370.49,-5336.1 -239.9,-196.4 -4370.46,5336"
         style="fill:#f99247;fill-opacity:1;fill-rule:nonzero;stroke:none"
         id="path264" /><path
         d="m 5823.78,14264.3 623.64,510.8 128.65,-157 -623.65,-510.8 -128.64,157"
         style="fill:#4cb7d8;fill-opacity:1;fill-rule:nonzero;stroke:none"
         id="path266" /><path
         d="m 5573.07,15206.5 v 0 c 172.21,141.1 426.17,115.8 567.22,-56.4 l 307.13,-375 -623.64,-510.8 -307.13,375 c -141.06,172.2 -115.8,426.2 56.42,567.2"
         style="fill:#fc4963;fill-opacity:1;fill-rule:nonzero;stroke:none"
         id="path268" /><path
         d="m 10823.9,8795.6 -334.6,1044.7 v 0 c -42.6,52 -120.1,59 -173.1,15.6 -53,-43.4 -61.4,-120.7 -18.8,-172.8 -42.6,52.1 -130.9,50.3 -197.1,-4 -66.2,-54.2 -85.4,-140.4 -42.8,-192.4 -42.6,52 -120.09,59 -173.08,15.6 -52.99,-43.4 -61.39,-120.8 -18.76,-172.8 v 0 l 958.24,-533.9"
         style="fill:#f7d6b2;fill-opacity:1;fill-rule:nonzero;stroke:none"
         id="path270" /><path
         d="m 10489.3,9840.3 c 0,0 -174.8,-6.8 -191.9,-157.2 l -91.1,111.2 191.9,157.2 91.1,-111.2"
         style="fill:#fec786;fill-opacity:1;fill-rule:nonzero;stroke:none"
         id="path272" /><path
         d="m 10057.5,9486.7 c 0,0 -174.78,-6.8 -191.84,-157.2 l -91.1,111.2 191.89,157.2 91.05,-111.2"
         style="fill:#fec786;fill-opacity:1;fill-rule:nonzero;stroke:none"
         id="path274" /><path
         d="m 10297.4,9683.1 c 0,0 -189.6,19.5 -239.9,-196.4 l -99.24,121.2 239.84,196.4 99.3,-121.2"
         style="fill:#f99247;fill-opacity:1;fill-rule:nonzero;stroke:none"
         id="path276" /><path
         d="m 10712.8,9142.6 c 0,0 -155.6,-3.4 -207.1,-169.7 l 318.2,-177.3 -111.1,347"
         style="fill:#ff424d;fill-opacity:1;fill-rule:nonzero;stroke:none"
         id="path278" /><path
         d="m 5564.32,15217.1 c -164.58,-136 -171.58,-288.7 -148.46,-392.7 24.84,-111.8 87.45,-190.4 90.1,-193.7 l 4350.73,-5311.9 2.29,-1.3 988.62,-550.8 -215.5,672.8 -26.2,-8.4 194.4,-606.6 -925.68,515.7 -4347.35,5307.8 c -0.55,0.7 -61.57,77.5 -84.81,183.3 -30.79,140.1 16.1,262.8 139.36,364.6 l -17.5,21.2"
         style="fill:#000000;fill-opacity:1;fill-rule:nonzero;stroke:none"
         id="path280" /><path
         d="m 7099.65,13957.1 2513.17,-3072.2 21.25,17.3 -2513.18,3072.3 -21.24,-17.4"
         style="fill:#000000;fill-opacity:1;fill-rule:nonzero;stroke:none"
         id="path282" /><path
         d="m 6481.22,14120.6 -9.73,-25.7 285.74,-108.3 9.72,25.7 -285.73,108.3"
         style="fill:#000000;fill-opacity:1;fill-rule:nonzero;stroke:none"
         id="path284" /><path
         d="m 5867.97,15003.4 -9.73,-25.7 162.34,-61.5 9.72,25.7 -162.33,61.5"
         style="fill:#000000;fill-opacity:1;fill-rule:nonzero;stroke:none"
         id="path286" /><path
         d="m 5789.68,15133.1 -9.73,-25.7 162.34,-61.5 9.72,25.7 -162.33,61.5"
         style="fill:#000000;fill-opacity:1;fill-rule:nonzero;stroke:none"
         id="path288" /><path
         d="m 6426.45,14272.4 -9.73,-25.7 285.74,-108.3 9.72,25.7 -285.73,108.3"
         style="fill:#000000;fill-opacity:1;fill-rule:nonzero;stroke:none"
         id="path290" /><path
         d="m 6437.78,14786.8 -622.72,-511.9 17.43,-21.2 622.73,511.9 -17.44,21.2"
         style="fill:#000000;fill-opacity:1;fill-rule:nonzero;stroke:none"
         id="path292" /><path
         d="m 9698.09,11006.5 -51.75,4 -197.07,178.1 -197.82,424.5 c 0,0 -306.37,313 -311.65,313.1 -5.27,0.1 -139.14,-10.8 -139.14,-10.8 l 115.18,-418.3 90.95,-215.7 96.08,-148 175.59,-118 134.12,-47.4 99.19,-22.9 93.35,7.8 92.97,53.6"
         style="fill:#f49d75;fill-opacity:1;fill-rule:nonzero;stroke:none"
         id="path294" /><path
         d="m 9538.29,10936.6 c -72.28,0.8 -173.86,23.2 -314.87,91.4 -284.63,137.7 -401.64,703.8 -487.06,1117.1 -37.89,183.3 -70.61,341.6 -105.33,379.6 l 17.32,15.8 c 39.07,-42.7 69.23,-188.7 110.98,-390.6 79.68,-385.5 200.09,-968.1 474.31,-1100.8 218.57,-105.7 336.4,-98.5 396.74,-73.8 46.87,19.1 63.96,50 68.19,59.3 -15.88,82.2 -302.64,1562.9 -348.34,1656.8 -12.92,26.5 -39.38,116.2 -76,240.3 -97.32,329.7 -278.45,943.4 -412.8,1027.2 -85.1,53 -778.95,389.9 -1445.54,614 l 7.48,22.2 c 668.32,-224.7 1364.92,-563 1450.48,-616.3 141.91,-88.5 317.79,-684.4 422.88,-1040.5 34.93,-118.3 62.53,-211.8 74.6,-236.6 48.1,-98.9 338.6,-1602.1 350.94,-1666.1 l 0.6,-3 -1.03,-3 c -0.68,-2 -17.56,-49 -81.5,-75.6 -24.57,-10.2 -57.83,-17.9 -102.05,-17.4"
         style="fill:#000000;fill-opacity:1;fill-rule:nonzero;stroke:none"
         id="path296" /></g></g></svg>
