<?xml version="1.0" encoding="UTF-8" standalone="no"?>
<svg
   xmlns:dc="http://purl.org/dc/elements/1.1/"
   xmlns:cc="http://creativecommons.org/ns#"
   xmlns:rdf="http://www.w3.org/1999/02/22-rdf-syntax-ns#"
   xmlns:svg="http://www.w3.org/2000/svg"
   xmlns="http://www.w3.org/2000/svg"
   viewBox="0 0 5163.96 5163.96"
   height="5163.96"
   width="5163.96"
   xml:space="preserve"
   id="svg2"
   version="1.1"><metadata
     id="metadata8"><rdf:RDF><cc:Work
         rdf:about=""><dc:format>image/svg+xml</dc:format><dc:type
           rdf:resource="http://purl.org/dc/dcmitype/StillImage" /></cc:Work></rdf:RDF></metadata><defs
     id="defs6" /><g
     transform="matrix(1.3333333,0,0,-1.3333333,0,5163.96)"
     id="g10"><g
       transform="scale(0.1)"
       id="g12"><g
         transform="scale(2.37606)"
         id="g14"><path
           id="path16"
           style="fill:#3ab43e;fill-opacity:1;fill-rule:evenodd;stroke:none"
           d="M 8149.98,0 C 12638.9,0 16300,3661.11 16300,8150.02 16300,12638.9 12638.9,16300 8149.98,16300 3661.14,16300 0,12638.9 0,8150.02 0,3661.11 3661.14,0 8149.98,0" /></g><g
         transform="scale(1.72318)"
         id="g18"><path
           id="path20"
           style="fill:#f4a00f;fill-opacity:1;fill-rule:evenodd;stroke:none"
           d="M 15147.1,4468.84 H 7328.73 c -635.8,0 -1152.99,517.36 -1152.99,1153.1 v 9298.16 c 0,635.8 517.19,1153 1152.99,1153 h 1703.19 c 50.54,0 97.96,-24.1 127.84,-64.7 29.83,-40.6 38.65,-93.1 23.56,-141.4 L 8794.51,14622.9 H 13681 l -388.6,1244.1 c -15.2,48.3 -6.5,100.8 23.5,141.4 29.9,40.7 77.3,64.7 127.8,64.7 h 1703.4 c 635.8,0 1152.9,-517.3 1152.9,-1153 V 5621.94 c 0,-635.74 -517.2,-1153.1 -1152.9,-1153.1" /></g><g
         transform="scale(1.69919)"
         id="g22"><path
           id="path24"
           style="fill:#f58c11;fill-opacity:1;fill-rule:evenodd;stroke:none"
           d="m 8816.49,16300 h 342.93 c 51.26,0 99.34,-24.4 129.65,-65.6 30.25,-41.2 39.2,-94.4 23.9,-143.4 L 8918.66,14829.3 H 13874.1 L 13480,16091 c -15.4,49 -6.5,102.2 23.9,143.4 30.3,41.2 78.3,65.6 129.6,65.6 h 343 l 467.3,-1495.2 c 15.1,-48.4 26.9,-83.6 26.9,-136.5 -0.1,-207.2 -168.2,-375.3 -375.4,-375.3 -0.8,0 -1.5,0 -2.3,0 H 8699.91 c -119.41,0 -231.76,56.8 -302.44,153.1 -70.68,96.2 -91.4,220.5 -55.85,334.4 l 474.87,1519.5" /></g><g
         transform="scale(1.60306)"
         id="g26"><path
           id="path28"
           style="fill:#f58c11;fill-opacity:1;fill-rule:evenodd;stroke:none"
           d="m 9569.35,15803.8 h 5020.95 c -22,76.2 -7.3,158.6 39.8,222.5 48.3,65.4 124.6,104.1 206.1,104.1 h 1208 c 141.2,0 255.8,-114.5 255.8,-255.7 V 7323.52 L 14712.5,5698.56 h -6597 c -141.1,0 -255.76,114.59 -255.76,255.7 v 9920.44 c 0,141.2 114.6,255.7 255.76,255.7 h 1208.07 c 81.41,0 157.95,-38.7 206.11,-104.3 47.03,-63.9 61.63,-146.2 39.67,-222.3" /></g><g
         transform="scale(1.58638)"
         id="g30"><path
           id="path32"
           style="fill:#f57914;fill-opacity:1;fill-rule:evenodd;stroke:none"
           d="m 9669.94,15969.9 h 5073.66 c -22.2,77 -7.3,160.3 40.3,224.9 48.8,66.1 125.9,105.2 208.2,105.2 h 340.5 l 138.3,-442.4 c 16.2,-51.9 28.9,-89.5 28.9,-146.2 -0.2,-222 -180.3,-402 -402.2,-402 -0.8,0 -1.6,0 -2.4,0 H 9318.57 c -127.9,0 -248.24,60.9 -323.94,164 -75.71,103 -97.9,236.1 -59.82,358.1 l 146.43,468.5 h 340.33 c 82.27,0 159.61,-39.1 208.28,-105.4 47.53,-64.6 62.28,-147.8 40.09,-224.7" /></g><g
         transform="scale(1.59467)"
         id="g34"><path
           id="path36"
           style="fill:#ffffff;fill-opacity:1;fill-rule:evenodd;stroke:none"
           d="M 14753.8,5814.25 H 8158.18 c -94.63,0 -171.44,76.82 -171.44,171.32 v 9972.63 c 0,94.6 76.81,171.4 171.44,171.4 H 9372.6 c 54.62,0 105.86,-25.9 138.15,-69.8 32.24,-43.9 41.77,-100.7 25.46,-152.8 l -33.17,-105.8 5280.46,0.1 -33,105.8 c -16.3,52 -6.9,108.8 25.5,152.7 32.5,43.9 83.6,69.8 138.2,69.8 h 1214.4 c 94.6,0 171.4,-76.8 171.4,-171.4 V 7396.9 L 14753.8,5814.25" /></g><g
         transform="scale(1.578)"
         id="g38"><path
           id="path40"
           style="fill:#e9e8e7;fill-opacity:1;fill-rule:evenodd;stroke:none"
           d="m 9102.41,16300 h 369.2 c 55.2,0 106.97,-26.2 139.61,-70.6 32.57,-44.4 42.2,-101.7 25.73,-154.4 l -33.53,-106.9 5336.28,0.1 -33.4,106.9 c -16.4,52.6 -6.9,109.9 25.8,154.3 32.8,44.4 84.5,70.6 139.6,70.6 h 369.4 l 111.9,-358.2 c 16.4,-52.1 29.1,-90 29.1,-146.9 -0.2,-223.2 -181.2,-404.2 -404.3,-404.2 -0.8,0 -1.6,0 -2.5,0 H 9368.06 c -128.58,0 -249.56,61.2 -325.66,164.9 -76.11,103.5 -98.42,237.4 -60.14,360 l 120.15,384.4" /></g><g
         transform="scale(1.90362)"
         id="g42"><path
           id="path44"
           style="fill:#2c597d;fill-opacity:1;fill-rule:evenodd;stroke:none"
           d="m 12581.6,12949.6 c -0.5,0 -1.3,-0.1 -2,0 H 7765.62 c -45.7,0 -88.62,21.7 -115.67,58.5 -27,36.8 -34.99,84.3 -21.33,128 l 687.69,2200.6 c 18.7,59.9 74.23,100.7 137.06,100.7 h 723.35 c 69.87,487 489.97,862.6 995.98,862.6 506.2,0 926.2,-375.6 996.1,-862.6 h 723.2 c 62.9,0 118.5,-40.8 137.1,-100.7 l 680.7,-2178.9 c 10,-19.4 15.4,-41.4 15.4,-64.6 -0.1,-79.4 -64.2,-143.6 -143.6,-143.6" /></g><g
         transform="scale(1.66389)"
         id="g46"><path
           id="path48"
           style="fill:#284f6f;fill-opacity:1;fill-rule:evenodd;stroke:none"
           d="m 14394.3,14815.3 c -0.6,0 -1.4,-0.1 -2.3,0 H 8884.48 c -52.28,0 -101.38,24.9 -132.34,67 -30.89,42.1 -40.02,96.5 -24.4,146.4 L 9125,16300 h 5026.7 l 389.3,-1246.4 c 11.5,-22.3 17.7,-47.4 17.7,-74 -0.2,-90.8 -73.5,-164.3 -164.4,-164.3" /></g><g
         transform="scale(1.4501)"
         id="g50"><path
           id="path52"
           style="fill:#c3c0c7;fill-opacity:1;fill-rule:evenodd;stroke:none"
           d="m 16111.5,15127.2 h -5514.8 c -104.1,0 -188.6,84.5 -188.6,188.5 0,104.1 84.5,188.6 188.6,188.6 h 5514.8 c 104.1,0 188.5,-84.5 188.5,-188.6 0,-104 -84.4,-188.5 -188.5,-188.5" /></g><g
         transform="scale(1.4501)"
         id="g54"><path
           id="path56"
           style="fill:#c3c0c7;fill-opacity:1;fill-rule:evenodd;stroke:none"
           d="m 16111.5,12960.6 h -5514.8 c -104.1,0 -188.6,84.6 -188.6,188.6 0,104.1 84.5,188.5 188.6,188.5 h 5514.8 c 104.1,0 188.5,-84.4 188.5,-188.5 0,-104.2 -84.4,-188.6 -188.5,-188.6" /></g><g
         transform="scale(1.4501)"
         id="g58"><path
           id="path60"
           style="fill:#c3c0c7;fill-opacity:1;fill-rule:evenodd;stroke:none"
           d="m 16111.5,10793.8 h -5514.8 c -104.1,0 -188.6,84.7 -188.6,188.7 0,103.9 84.5,188.4 188.6,188.4 h 5514.8 c 104.1,0 188.5,-84.5 188.5,-188.4 0,-104 -84.4,-188.7 -188.5,-188.7" /></g><g
         transform="scale(1.4501)"
         id="g62"><path
           id="path64"
           style="fill:#c3c0c7;fill-opacity:1;fill-rule:evenodd;stroke:none"
           d="m 16111.5,8627.24 h -5514.8 c -104.1,0 -188.6,84.48 -188.6,188.4 0,103.99 84.5,188.61 188.6,188.61 h 5514.8 c 104.1,0 188.5,-84.62 188.5,-188.61 0,-103.92 -84.4,-188.4 -188.5,-188.4" /></g><g
         transform="scale(1.59467)"
         id="g66"><path
           id="path68"
           style="fill:#e9e8e7;fill-opacity:1;fill-rule:evenodd;stroke:none"
           d="M 16300,7396.9 H 14753.8 V 5814.25 L 16300,7396.9" /></g></g></g></svg>